<svg xmlns="http://www.w3.org/2000/svg" xmlns:xlink="http://www.w3.org/1999/xlink" width="30" height="30" viewBox="0 0 30 30">
  <defs>
    <style>
      .cls-1 {
        fill: #196db5;
      }

      .cls-2 {
        fill: #bad3e8;
      }

      .cls-3 {
        fill: #fff;
      }

      .cls-4 {
        fill: url(#Nepojmenovaný_přechod_8);
      }

      .cls-5 {
        fill: #666;
        fill-rule: evenodd;
      }
    </style>
    <linearGradient id="Nepojmenovaný_přechod_8" data-name="Nepojmenovaný přechod 8" x1="76.22" y1="-63.08" x2="76.22" y2="-64.08" gradientTransform="matrix(25, 0, 0, -25, -1890.5, -1574.5)" gradientUnits="userSpaceOnUse">
      <stop offset="0" stop-color="#dbdee3"/>
      <stop offset="1" stop-color="#fdfdfd"/>
    </linearGradient>
  </defs>
  <title>Datový zdroj 7</title>
  <g id="Vrstva_2" data-name="Vrstva 2">
    <g id="Vrstva_1-2" data-name="Vrstva 1">
      <g id="read">
        <g id="announce_read" data-name="announce read">
          <g>
            <path class="cls-1" d="M30,15A15,15,0,1,1,15,0,15,15,0,0,1,30,15"/>
            <path class="cls-2" d="M29,15A14,14,0,1,1,15,1,14,14,0,0,1,29,15"/>
            <path class="cls-3" d="M28.5,15A13.5,13.5,0,1,1,15,1.5,13.49,13.49,0,0,1,28.5,15"/>
            <path class="cls-4" d="M27.5,15A12.5,12.5,0,1,1,15,2.5,12.5,12.5,0,0,1,27.5,15"/>
          </g>
          <path class="cls-5" d="M17.65,7a2.18,2.18,0,0,0-2.22,2,1.62,1.62,0,0,0,1.73,1.65,2.22,2.22,0,0,0,2.34-2A1.66,1.66,0,0,0,17.65,7Zm-3.94,6.14c.24,0,.49.22.24.65l-2,4.28a13.87,13.87,0,0,0-1.11,3.61c0,.88.74,1.32,1.73,1.32,2.83,0,6-3.07,6-3.73,0-.22-.25-.32-.37-.32C17.9,19,16.42,21,15.55,21c-.24,0-.37-.11-.37-.33a2.27,2.27,0,0,1,.62-1.32l2-4.82c1-2.41-.24-3.07-1.48-3.07a7,7,0,0,0-4.19,1.65c-.37.33-1.6,1.31-1.6,1.75a.37.37,0,0,0,.37.33C11.36,15.22,12.72,13.14,13.71,13.14Z"/>
        </g>
      </g>
    </g>
  </g>
</svg>
