<svg xmlns="http://www.w3.org/2000/svg" xmlns:xlink="http://www.w3.org/1999/xlink" width="32" height="32" viewBox="0 0 32 32">
  <defs>
    <style>
      .cls-1 {
        fill: none;
      }

      .cls-2 {
        fill: #196db5;
      }

      .cls-3 {
        fill: #bad3e8;
      }

      .cls-4 {
        fill: #fff;
      }

      .cls-5 {
        fill: url(#Nepojmenovaný_přechod_12);
      }

      .cls-6 {
        fill: #666;
        fill-rule: evenodd;
      }
    </style>
    <linearGradient id="Nepojmenovaný_přechod_12" data-name="Nepojmenovaný přechod 12" x1="45.22" y1="-62.08" x2="45.22" y2="-63.08" gradientTransform="matrix(25, 0, 0, -25, -1114.5, -1548.5)" gradientUnits="userSpaceOnUse">
      <stop offset="0" stop-color="#dbdee3"/>
      <stop offset="1" stop-color="#fdfdfd"/>
    </linearGradient>
  </defs>
  <title>Datový zdroj 1</title>
  <g id="Vrstva_2" data-name="Vrstva 2">
    <g id="Vrstva_1-2" data-name="Vrstva 1">
      <g id="read">
        <g id="forum_read" data-name="forum read">
          <path class="cls-1" d="M0,0H32V32H0Z"/>
          <g>
            <path class="cls-2" d="M31,16A15,15,0,1,1,16,1,15,15,0,0,1,31,16"/>
            <path class="cls-3" d="M30,16A14,14,0,1,1,16,2,14,14,0,0,1,30,16"/>
            <path class="cls-4" d="M29.5,16A13.5,13.5,0,1,1,16,2.5,13.49,13.49,0,0,1,29.5,16"/>
            <path class="cls-5" d="M28.5,16A12.5,12.5,0,1,1,16,3.5,12.5,12.5,0,0,1,28.5,16"/>
          </g>
          <path id="Shape-Copy-22" class="cls-6" d="M16,9H8V8h8ZM8,11v1H24V11Zm16,3v1H8V14ZM8,18h8V17H8Zm0,3V20H24v1Zm0,3V23H24v1Z"/>
        </g>
      </g>
    </g>
  </g>
</svg>
