<svg xmlns="http://www.w3.org/2000/svg" xmlns:xlink="http://www.w3.org/1999/xlink" width="32" height="32" viewBox="0 0 32 32">
  <defs>
    <style>
      .cls-1 {
        fill: none;
      }

      .cls-2, .cls-6 {
        fill: #bc2a4d;
      }

      .cls-3 {
        fill: #ebc1ca;
      }

      .cls-4 {
        fill: #fff;
      }

      .cls-5, .cls-6 {
        fill-rule: evenodd;
      }

      .cls-5 {
        fill: url(#Nepojmenovaný_přechod_35);
      }
    </style>
    <linearGradient id="Nepojmenovaný_přechod_35" data-name="Nepojmenovaný přechod 35" x1="-117.08" y1="-62.18" x2="-117.08" y2="-63.18" gradientTransform="matrix(19, 0, 0, -25.25, 2240.5, -1566.5)" gradientUnits="userSpaceOnUse">
      <stop offset="0" stop-color="#dbdee3"/>
      <stop offset="1" stop-color="#fdfdfd"/>
    </linearGradient>
  </defs>
  <title>Datový zdroj 15</title>
  <g id="Vrstva_2" data-name="Vrstva 2">
    <g id="Vrstva_1-2" data-name="Vrstva 1">
      <g id="unread">
        <g id="sticky_unread" data-name="sticky unread">
          <path class="cls-1" d="M0,0H32V32H0Z"/>
          <g>
            <path class="cls-2" d="M28,13A12,12,0,1,1,16,1,12,12,0,0,1,28,13"/>
            <path class="cls-2" d="M23,24a7,7,0,1,1-7-7,7,7,0,0,1,7,7"/>
            <path class="cls-3" d="M27,13A11,11,0,1,1,16,2,11,11,0,0,1,27,13"/>
            <path class="cls-3" d="M22,24a6,6,0,1,1-6-6,6,6,0,0,1,6,6"/>
            <path class="cls-4" d="M26.5,13A10.5,10.5,0,1,1,16,2.5,10.5,10.5,0,0,1,26.5,13"/>
            <path class="cls-4" d="M21.5,24A5.5,5.5,0,1,1,16,18.5,5.5,5.5,0,0,1,21.5,24"/>
            <path class="cls-5" d="M20.09,21.58a9.5,9.5,0,1,0-8.18,0,4.75,4.75,0,1,0,8.18,0Z"/>
          </g>
          <path class="cls-6" d="M13.38,14c0,2.33,2.62,7,2.62,7s2.63-4.67,2.63-7S16,11.69,16,11.69,13.38,11.69,13.38,14Zm4.5,10A1.78,1.78,0,0,1,16,25.69a1.68,1.68,0,1,1,0-3.34A1.78,1.78,0,0,1,17.88,24Z"/>
          <path class="cls-6" d="M16,8H10V7h6Zm6,2H10V9H22Z"/>
        </g>
      </g>
    </g>
  </g>
</svg>
