<svg xmlns="http://www.w3.org/2000/svg" xmlns:xlink="http://www.w3.org/1999/xlink" width="32" height="32" viewBox="0 0 32 32">
  <defs>
    <style>
      .cls-1 {
        fill: none;
      }

      .cls-2 {
        fill: #196db5;
      }

      .cls-3 {
        fill: #bad3e8;
      }

      .cls-4 {
        fill: #fff;
      }

      .cls-5 {
        fill: url(#Nepojmenovaný_přechod);
      }

      .cls-6 {
        fill: #666;
        fill-rule: evenodd;
      }
    </style>
    <linearGradient id="Nepojmenovaný_přechod" data-name="Nepojmenovaný přechod" x1="109.22" y1="-94.08" x2="109.22" y2="-95.08" gradientTransform="matrix(25, 0, 0, -25, -2714.5, -2348.5)" gradientUnits="userSpaceOnUse">
      <stop offset="0" stop-color="#dbdee3"/>
      <stop offset="1" stop-color="#fdfdfd"/>
    </linearGradient>
  </defs>
  <title>Datový zdroj 16</title>
  <g id="Vrstva_2" data-name="Vrstva 2">
    <g id="Vrstva_1-2" data-name="Vrstva 1">
      <g id="read">
        <g id="topic_moved" data-name="topic moved">
          <path id="Rectangle-2" class="cls-1" d="M0,0H32V32H0Z"/>
          <g id="circle">
            <path id="Fill-1" class="cls-2" d="M31,16A15,15,0,1,1,16,1,15,15,0,0,1,31,16"/>
            <path id="Fill-1-Copy" class="cls-3" d="M30,16A14,14,0,1,1,16,2,14,14,0,0,1,30,16"/>
            <path id="Fill-1-Copy-2" class="cls-4" d="M29.5,16A13.5,13.5,0,1,1,16,2.5,13.49,13.49,0,0,1,29.5,16"/>
            <path id="Fill-1-Copy-3" class="cls-5" d="M28.5,16A12.5,12.5,0,1,1,16,3.5,12.5,12.5,0,0,1,28.5,16"/>
          </g>
          <g id="Group-2">
            <path id="Shape" class="cls-6" d="M24,15H20V14h4Zm-4,3h4V17H20Zm4,3H8V20H24Zm-6,3H8V23H18Z"/>
            <path class="cls-2" d="M8.52,18l3.42-3.7L15.37,18h1.51L18,16.79l-4.17-4.51,3.46-3.73V8H8V18Z"/>
          </g>
        </g>
      </g>
    </g>
  </g>
</svg>
