<?xml version="1.0" encoding="UTF-8"?>
<svg version="1.1" viewBox="0 0 717 1022" xmlns="http://www.w3.org/2000/svg">
 <defs>
  <filter id="e" x="-.17717" y="-.24508" width="1.3543" height="1.4902">
   <feGaussianBlur stdDeviation="10.575135"/>
  </filter>
  <filter id="d" x="-.20736" y="-.31437" width="1.4147" height="1.6287">
   <feGaussianBlur stdDeviation="26.81104"/>
  </filter>
  <filter id="c" x="-.20736" y="-.31437" width="1.4147" height="1.6287" color-interpolation-filters="sRGB">
   <feGaussianBlur stdDeviation="26.81104"/>
  </filter>
  <filter id="b">
   <feGaussianBlur stdDeviation="1.0231607"/>
  </filter>
  <filter id="a">
   <feGaussianBlur stdDeviation="1.952912"/>
  </filter>
 </defs>
 <g transform="matrix(.9066 0 0 .9066 22.795 38.225)">
  <path d="m126.49 970.47c37.107-1.2449 70.002-40.404 103.06-78.077 40.627-40.326 24.246-109.16 17.177-173.33-17.801-80.756-176.54-76.146-212.37-199.88-66.852-290.41-21.934-504.74 323.24-505.94 207.71-0.83495 374.17 119.93 354.47 379.46 1.2805 60.254 47.82 77.475-193.63 368.52-25.34 41.731-51.72 73.059-81.2 73.393-56.27 100.47 35.715 128.72 138.98 151.47-24.567 13.414-2.8402 27.985-184.26 37.477-125.97-12.185-275.06-20.971-265.46-53.092z" fill="#4d4d4d" stroke="#000" stroke-width="1px"/>
  <path transform="matrix(.98977 .14663 -.14268 1.0172 35.422 -51.424)" d="m404.75 415.58c0 55.691-69.914 100.84-156.16 100.84-86.243 0-156.16-45.146-156.16-100.84 0-55.691 69.914-100.84 156.16-100.84 86.243 0 156.16 45.146 156.16 100.84z"/>
  <path transform="matrix(-.67051 .13658 .12987 .71495 711.93 113.07)" d="m404.75 415.58c0 55.691-69.914 100.84-156.16 100.84-86.243 0-156.16-45.146-156.16-100.84 0-55.691 69.914-100.84 156.16-100.84 86.243 0 156.16 45.146 156.16 100.84z"/>
  <path d="m29.411 383.37c101.57-238.13 400-116.85 403.35 33.612 17.707-21.041 30.355-47.14 40.615-75.628l-7.0026 67.224c54.587-44.032 109.78-135.77 236.69-56.02 26.278-458.68-789.59-415.6-673.65 30.811z" fill="#b3b3b3" stroke="#000" stroke-width="1px"/>
  <path d="m134.45 313.34c96.842-35.272 196.51 41.817 260.49 113.44-16.423-157.1-179.88-177.8-260.49-113.44z" fill="#b3b3b3" stroke="#000" stroke-width="1px"/>
  <path d="m72.827 372.16c-113.07 190.8 262.44 241.79 301.11 128.85-59.023 39.419-99.182 33.562-140.05 29.411 71.023-6.2706 105.72-30.705 124.65-63.023-119.09 62.8-304.77 32.303-285.7-95.235z" fill="#b3b3b3" stroke="#000" stroke-width="1px"/>
  <path d="m498.58 433.79c37.791-46.47 86.656-78.153 165.26-50.418-45.494-81.626-145.52-20.627-165.26 50.418z" fill="#b3b3b3" stroke="#000" stroke-width="1px"/>
  <path d="m508.39 492.61c118.16 59.279 224.48-19.227 186.27-86.832 32.636 9.1033 15.522 51.672-14.157 101.36-26.872 44.991-60.697 124.12-162.31 24.684 38.183 17.667 65.156 9.1795 92.434 1.4005-67.361-5.8579-81.545-23.987-102.24-40.615z" fill="#b3b3b3" stroke="#000" stroke-width="1px"/>
  <path d="m215.68 593.44c198.03 62.037 13.146 150.32 194.67 201.67-50.516-67.419 11.593-47.486-5.602-93.834l-26.707-5.3727 42.469-10.628c2.6902-6.6836 2.8354-12.095 1.3664-16.699l-51.751 15.532c30.856-65.172 84.62-26.623 30.421-163.5l16.806 2.801c2.822 14.044 2.0825 28.411 12.329 41.78 7.7297-32.158 1.6048-87.243 4.4776-141.22-79.275 185.6-140.87 124.15-99.436 224.08-45.71-54.377-84.524-67.383-119.04-54.62z" fill="#b3b3b3" stroke="#000" stroke-width="1px"/>
  <path transform="matrix(-.53152 -.078744 .07662 -.54626 292.53 650.09)" d="m404.75 415.58c0 55.691-69.914 100.84-156.16 100.84-86.243 0-156.16-45.146-156.16-100.84 0-55.691 69.914-100.84 156.16-100.84 86.243 0 156.16 45.146 156.16 100.84z" fill="#504eff" filter="url(#d)" opacity=".74349"/>
  <path d="m159.28 426.27c-44.104-18.879-57.889-102.63 39.819-89.008-36.202 2.7318-48.868 19.41-28.889 55.435-11.272 9.9198-12.002 21.596-10.931 33.573z" fill="#f2f2f2" filter="url(#a)" opacity=".95167" stroke="#000" stroke-width="1px"/>
  <path transform="matrix(.40776 -.060409 -.058779 -.41907 506.16 625.14)" d="m404.75 415.58c0 55.691-69.914 100.84-156.16 100.84-86.243 0-156.16-45.146-156.16-100.84 0-55.691 69.914-100.84 156.16-100.84 86.243 0 156.16 45.146 156.16 100.84z" fill="#504eff" filter="url(#c)" opacity=".74349"/>
  <path d="m599.57 426.85c-11.332-9.6965-62.911-21.341-75.636 16.011 8.4654 13.994 16.931 9.7607 25.396 9.9376 9.7628-27.606 30.533-25.334 50.24-25.948z" fill="#f2f2f2" filter="url(#b)" opacity=".91078" stroke="#000" stroke-width="1px"/>
  <path d="m460.66 422.37 52.312 138.2-17.177 28.108 37.477-4.6846c-14.633 8.6054-21.48 21.882-25.765 36.696 19.78-13.416 39.559-17.088 59.339-20.3l-40.6 31.231c-14.357 110.49-46.879 153.91-88.227 164.74 33.344-61.749-7.8306-48.514-14.835-88.227l37.477-5.4654-34.354-17.958c-0.69648-7.2029-1.6387-11.528 1.5616-14.835l56.216 10.15c6.9004-22.764-36.397-15.587-53.873-52.312l3.1231-37.477c19.033-3.6968 25.055-36.669 36.696-56.996-2.7433-2.6026-6.1132-5.2052-10.931-7.8077-5.2052 18.827-10.41 24.462-15.615 33.573-1.4937-45.545-1.7634-91.09 17.177-136.64z" fill="#b3b3b3" stroke="#000" stroke-width="1px"/>
  <path d="m277.17 737.02 3.9039 29.669-1.5615 6.2462v6.2462l-1.5616 29.669-3.1231 3.9039-1.5616 5.4654 1.5616 7.8077 0.78077 10.15-3.1231 39.039-5.4654 21.081-10.15 15.615s-38.258 37.477-41.381 37.477-29.669 18.739-29.669 18.739c21.899-2.4857 19.92 18.083 97.597-38.258 12.977 13.569 29.303 23.79 20.3 59.339 29.735-16.712 35.904-44.906-8.5885-96.816l1.5615-17.177c10.103-24.747 2.8126-37.494-5.4654-52.312 10.988-45.869-5.8806-61.094-14.054-85.885z" fill="#b3b3b3" stroke="#000" stroke-width="1px"/>
  <path d="m331.05 797.92 1.5615 9.3693c-11.597 37.206-24.693 74.296 16.396 115.55 5.278 9.2027 9.3624 19.002 2.3423 34.354-31.42 75.102 14.953 55.6 21.862 61.681-13.418-27.39-16.167-54.316 17.958-79.639 26.755 70.258 73.402 69.237 124.92 50.75-125.62-15.657-138.82-124.49-101.5-151.47l-25.765-8.5885 0.78077 29.669c-8.4741 16.053-11.838 16.776-16.396 21.081-0.20238 32.455-3.7638 44.197-16.396 0-5.0424-25.028 6.9263-42.496 20.3-59.339z" fill="#b3b3b3" stroke="#000" stroke-width="1px"/>
  <path transform="matrix(1.3346 -.97833 1.2995 1.0048 -513.79 -65.983)" d="m249.85 388.79c0 28.891-29.363 52.312-65.585 52.312-36.222 0-65.585-23.421-65.585-52.312s29.363-52.312 65.585-52.312c36.222 0 65.585 23.421 65.585 52.312z" fill="#f9f9f9" filter="url(#e)" opacity=".84758"/>
 </g>
</svg>
