<?xml version="1.0" encoding="UTF-8"?>
<svg viewBox="0 0 389.76376 389.76376" xmlns="http://www.w3.org/2000/svg" xmlns:xlink="http://www.w3.org/1999/xlink">
 <defs>
  <filter id="j">
   <feGaussianBlur stdDeviation="1.0023"/>
  </filter>
  <filter id="l">
   <feGaussianBlur stdDeviation="7.0393"/>
  </filter>
  <filter id="k" x="-.0186" y="-.12574" width="1.0372" height="1.2515">
   <feGaussianBlur stdDeviation="2.5347"/>
  </filter>
  <linearGradient id="a">
   <stop stop-color="#fff" offset="0"/>
   <stop stop-color="#fff" stop-opacity="0" offset="1"/>
  </linearGradient>
  <linearGradient id="b">
   <stop offset="0"/>
   <stop stop-opacity="0" offset="1"/>
  </linearGradient>
  <linearGradient id="g" x1="124.1" x2="257.87" y1="839.05" y2="844.6" gradientUnits="userSpaceOnUse">
   <stop stop-opacity=".7191" offset="0"/>
   <stop stop-opacity="0" offset="1"/>
  </linearGradient>
  <linearGradient id="i" x1="206.65" x2="365.11" y1="380.45" y2="353.83" gradientUnits="userSpaceOnUse" xlink:href="#b"/>
  <linearGradient id="h" x1="360.12" x2="456.08" y1="851.85" y2="850.58" gradientUnits="userSpaceOnUse" xlink:href="#b"/>
  <linearGradient id="f" x1="183.74" x2="220.13" y1="598.88" y2="708.48" gradientUnits="userSpaceOnUse" xlink:href="#a"/>
  <linearGradient id="e" x1="46.355" x2="211" y1="497.99" y2="268.86" gradientUnits="userSpaceOnUse" xlink:href="#a"/>
  <linearGradient id="d" x1="133.18" x2="175.6" y1="604" y2="658.17" gradientUnits="userSpaceOnUse" xlink:href="#a"/>
  <linearGradient id="c" x1="176.75" x2="219.18" y1="603.11" y2="657.28" gradientUnits="userSpaceOnUse" xlink:href="#a"/>
 </defs>
 <g transform="translate(0 -177.17)">
  <path d="m197.73 197.16c-53.93 0.32756-111.16 36.403-131.47 94.781-8.376 24.075-3.3745 71.092-6.7812 96.188s-7.1545 40.563-12.125 58.594-13.211 38.114-17.156 49.5c-3.9671 11.448-5.7002 18.386-0.9375 20.562 1.4433 0.65963 3.2145 0.85408 5.25 0.71875 8.2514 0.48609 18.154-1.9698 27.969-4.7812l32.411-9.3806 14.433 8.7868c11.894 11.077 17.355 32.553 31.125 34.688 30.681 4.7559 47.746-26.006 75.469-19.438 18.807 4.4556 36.48 27.962 55.625 25.312 18.793-2.601 25.423-30.946 42.688-38.812 15.178-6.9154 40.65 5.8989 53.219-0.84375h0.0312c1.1018-0.20133 2.1271-0.72276 3.125-1.6562 17.325-16.207-27.46-90.212-31.312-109.09-6.2499-34.003 0.17706-70.88-10.094-105.06-12.686-42.22-48.641-93.574-120.75-99.656-3.5542-0.29977-7.1234-0.42809-10.719-0.40625z" fill="#666" filter="url(#l)" stroke="#000"/>
  <g transform="translate(-90.956 88.945)">
   <path d="m112.95 423.71c2.2507 1.023 2.3262 1.4556 4.9106 1.7419 19.612 2.1723 49.855-14.351 65-11.385 20.944 4.1013 25.048 38.104 42.561 40.819 30.681 4.7559 47.739-26.002 75.462-19.434 18.807 4.4556 36.493 27.961 55.638 25.311 18.793-2.601 25.403-30.955 42.667-38.821 17.912-8.161 50.185 11.161 58.635-6.6161-3.698-15.765-43.548-40.633-62.323-46.338-78.084-23.727-137.32-27.796-213.71 0.61493-22.581 8.3978-61.787 32.178-68.839 54.107z" fill="#ccc"/>
   <path d="m124.48 421.06c1.8984 1.1865 61.442-29.139 79.601-33.328 18.623-4.2961 33.404 8.2339 52.501 8.9868 27.915 1.1005 60.649-31.1 81.205-22.565 9.6665 4.0137-0.26817 23.97 6.1502 32.238 6.1187 7.8818 10.884 7.425 20.861 7.2544 17.513-0.29937 37.298-27.923 52.884-19.931 13.953 7.1547 34.072 25.736 33.931 23.333" fill="none" filter="url(#k)" stroke="#848181" stroke-width="6.3"/>
   <path d="m114.21 424.85c-4.7627-2.1767-3.0182-9.1121 0.94887-20.56 3.9456-11.386 12.202-31.466 17.173-49.497s8.7151-33.494 12.122-58.589-1.6008-72.135 6.7752-96.21c21.665-62.271 85.319-99.148 142.19-94.352 72.109 6.0818 108.06 57.428 120.75 99.648 10.271 34.183 3.8516 71.053 10.102 105.06 3.8521 18.882 48.64 92.889 31.315 109.1-10.644 9.9572-27.704-25.436-40.406-27.274-15.706-0.4652-26.888 9.9952-34.748 14.907-19.741 12.357-40.582 4.4581-37.152-10.8 1.0654-4.7388 1.8014-14.597-1.7625-20.244-5.2547-8.3266-21.651-3.2668-30.384 0.98477-22.735 11.068-46.803 19.751-57.64 18.417-10.756-1.3234-34.041-12.653-51.941-8.0094-16.229 4.2096-18.583 6.9608-35.401 16.443-15.069 8.4953-41.805 25.614-51.936 20.984z" fill="#ececec"/>
   <path transform="translate(0 -485.43)" d="m208.53 871.8c27.222-25.07 36.619-71.973 40.46-91.83 12.709 38.849 18.448 60.862 9.5404 100.91-7.9858 2.0364-33.76-11.481-50-9.0825z" fill="url(#g)"/>
   <path d="m338.86 281.49c-1.7425 0.17425 14.162 89.881 37.083 127.57-2.4754 2.8483-18.343 7.0366-27.443 0.54098-2.6539-1.7253-4.2592-4.3245-5.4922-7.2339-0.46059-4.3857 1.073-8.3885 1.246-12.133 0.0483-7.4965-0.0662-6.0765-1.6395-12.395-2.6869-19.887-9.1017-75.93-3.7546-96.345z" fill="url(#i)"/>
   <path transform="translate(0 -485.43)" d="m391.62 776.82c-2.053 0.68435 0.0992 32.183 22.116 66.541 13.482 21.039 27.157 51.306 36.205 63.254-4.4089-1.5293-12.805-9.3084-20.048-18.006-3.9899-4.7907-7.3496-7.6651-13.133-11.345-27.429-17.45-30.328-77.563-25.139-100.44z" fill="url(#h)" opacity=".2917"/>
   <path transform="translate(0 -485.43)" d="m157.93 694.69c9.4642-39.141 77.53-106.39 130.71-93.214 4.8816 1.2094 6.1229 3.5211 3.0548 12.846-16.56 50.331-69.421 44.542-125.67 101.75-12.456 9.9977-13.224-6.2576-8.0961-21.384z" fill="url(#f)"/>
   <path d="m123.21 407.29c17.783-31.429 25.817-70.595 33.214-102.5 8.1445-25.531 50.163-40.521 54.286-13.571 6.4938 42.449-29.328 94.565-47.001 107.53-16.388 9.1791-21.808 6.2953-39.047 18.411-3.837 2.6968-7.3829 0.6069-1.452-9.8748z" fill="url(#e)"/>
   <g transform="translate(-20.886 332.14)">
    <g transform="translate(112.14 -754.29)">
     <g transform="translate(0 -485.43)" stroke="#000">
      <path d="m159.57 1095c-2.1587 0.039-4.3369 0.3254-6.4832 0.9005-17.17 4.6007-26.57 25.241-20.98 46.102s24.07 34.045 41.24 29.444c8.3655-2.2416 14.89-8.271 18.729-16.298 3.8411 8.0079 10.287 14.06 18.639 16.298 17.17 4.6007 35.65-8.5833 41.24-29.444s-3.81-41.502-20.98-46.102c-15.322-4.1056-31.677 5.9249-38.989 22.961-6.2917-14.637-19.171-24.102-32.416-23.862z" fill="#fff" stroke-width="2.8346"/>
      <path transform="matrix(.87674 0 0 1.1219 106.1 405.69)" d="m92.857 660.5c0 11.835-8.7944 21.429-19.643 21.429s-19.643-9.5939-19.643-21.429 8.7944-21.429 19.643-21.429 19.643 9.5939 19.643 21.429z" stroke-linecap="round" stroke-linejoin="round" stroke-width=".71455"/>
      <path transform="matrix(.87674 0 0 1.1219 149.59 405.69)" d="m92.857 660.5c0 11.835-8.7944 21.429-19.643 21.429s-19.643-9.5939-19.643-21.429 8.7944-21.429 19.643-21.429 19.643 9.5939 19.643 21.429z" stroke-linecap="round" stroke-linejoin="round" stroke-width=".71455"/>
     </g>
     <path d="m160.12 640.13c-5.008 3.7382-9.6901 21.004-9.3928 21.302 12.079 59.285 34.224 30.994 38.555 3.7927 2.7836-17.48-3.7161-34.065-18.589-28.144 0 0-5.8547-0.4732-10.574 3.0491z" fill="url(#d)"/>
     <path d="m203.69 639.24c-5.008 3.7382-9.6901 21.004-9.3928 21.302 12.079 59.285 34.224 30.994 38.555 3.7927 2.7836-17.48-3.7161-34.065-18.589-28.144 0 0-5.8547-0.4732-10.574 3.0491z" fill="url(#c)"/>
    </g>
    <path d="m271.89-142.92c-2.1587 0.039-4.3369 0.3254-6.4832 0.9005-17.17 4.6007-26.57 25.241-20.98 46.102s24.07 34.045 41.24 29.444c8.3655-2.2416 14.89-8.271 18.729-16.298 3.8411 8.0079 10.287 14.06 18.639 16.298 17.17 4.6007 35.65-8.5833 41.24-29.444s-3.81-41.502-20.98-46.102c-15.322-4.1056-31.677 5.9249-38.989 22.961-6.2917-14.637-19.171-24.102-32.416-23.862z" fill="none" filter="url(#j)" stroke="#000" stroke-width="2.8346"/>
   </g>
  </g>
 </g>
</svg>
