<?xml version="1.0" encoding="UTF-8" standalone="no"?>
<svg
   xmlns:dc="http://purl.org/dc/elements/1.1/"
   xmlns:cc="http://creativecommons.org/ns#"
   xmlns:rdf="http://www.w3.org/1999/02/22-rdf-syntax-ns#"
   xmlns:svg="http://www.w3.org/2000/svg"
   xmlns="http://www.w3.org/2000/svg"
   viewBox="0 0 5785.7334 5785.7334"
   height="5785.7334"
   width="5785.7334"
   xml:space="preserve"
   id="svg2"
   version="1.1"><metadata
     id="metadata8"><rdf:RDF><cc:Work
         rdf:about=""><dc:format>image/svg+xml</dc:format><dc:type
           rdf:resource="http://purl.org/dc/dcmitype/StillImage" /></cc:Work></rdf:RDF></metadata><defs
     id="defs6"><clipPath
       id="clipPath18"
       clipPathUnits="userSpaceOnUse"><path
         id="path16"
         d="M 0,4339.302 H 4339.302 V 0 H 0 Z" /></clipPath></defs><g
     transform="matrix(1.3333333,0,0,-1.3333333,0,5785.7333)"
     id="g10"><g
       id="g12"><g
         clip-path="url(#clipPath18)"
         id="g14"><g
           transform="translate(772.1665,2800.4177)"
           id="g20"><path
             id="path22"
             style="fill:#fec93e;fill-opacity:1;fill-rule:nonzero;stroke:none"
             d="m 0,0 c -8.467,-19.628 -13.162,-41.028 -13.162,-63.454 0,-94.574 82.709,-171.233 184.734,-171.233 h 1216.115 19.603 1216.114 c 102.024,0 184.734,76.667 184.734,171.233 0,22.426 -4.704,43.826 -13.162,63.454 148.112,42.639 137.281,271.147 -42.664,276.503 -4.356,0.136 -8.738,0.187 -13.128,0.162 -9.586,-0.051 -19.053,-0.568 -28.434,-1.348 -0.017,0 -0.017,0.008 -0.017,0.017 18.001,38.604 27.926,81.184 27.629,125.941 -1.136,172.886 -153.275,312.193 -339.796,311.133 -9.586,-0.051 -19.053,-0.568 -28.435,-1.347 -0.016,0 -0.016,0.008 -0.016,0.017 18.001,38.604 27.926,81.184 27.629,125.941 -1.136,172.894 -153.275,312.201 -339.796,311.142 -14.79,-0.085 -29.324,-1.144 -43.606,-2.933 0.01,0.898 0.069,1.789 0.06,2.687 -1.068,161.741 -143.392,292.055 -317.888,291.072 -30.264,-0.178 -59.471,-4.365 -87.141,-11.891 v 0.017 c -45.013,61.377 -118.136,103.423 -202.075,110.669 v 1.102 c -3.297,-0.068 -6.543,-0.313 -9.806,-0.483 -3.263,0.178 -6.509,0.415 -9.805,0.483 v -1.102 c -83.939,-7.238 -157.063,-49.292 -202.083,-110.669 -0.01,-0.01 -0.017,-0.01 -0.017,-0.01 -27.663,7.517 -56.877,11.713 -87.142,11.882 -174.496,0.992 -316.82,-129.331 -317.888,-291.072 0,-0.898 0.059,-1.789 0.059,-2.686 -14.28,1.788 -28.815,2.847 -43.604,2.932 -186.523,1.05 -338.661,-138.248 -339.796,-311.142 -0.297,-44.749 9.627,-87.337 27.629,-125.941 0,-0.009 -0.009,-0.017 -0.017,-0.017 -9.383,0.779 -18.849,1.296 -28.435,1.347 -186.522,1.06 -338.66,-138.239 -339.796,-311.133 -0.296,-44.749 9.628,-87.337 27.63,-125.941 0.008,-0.008 0,-0.017 -0.009,-0.017 -9.383,0.78 -18.849,1.297 -28.434,1.348 -4.399,0.025 -8.772,-0.035 -13.129,-0.162 C -137.29,271.147 -148.122,42.63 0,0" /></g><g
           transform="translate(772.1665,2800.4265)"
           id="g24"><path
             id="path26"
             style="fill:#efb533;fill-opacity:1;fill-rule:nonzero;stroke:none"
             d="m 0,0 c -8.467,-19.629 -13.162,-41.029 -13.162,-63.454 0,-94.566 82.709,-171.233 184.734,-171.233 h 499.765 c -102.024,0 -184.733,76.666 -184.733,171.233 0,22.425 4.704,43.825 13.162,63.454 33.824,94.464 131.857,1069.748 1098.461,1438.987 0.475,0.177 0.967,0.296 1.441,0.465 -45.444,54.623 -114.203,91.575 -192.378,98.321 v 1.102 c -3.297,-0.068 -6.543,-0.305 -9.806,-0.483 -3.263,0.178 -6.509,0.415 -9.806,0.483 v -1.093 c -83.938,-7.246 -157.062,-49.292 -202.074,-110.669 -0.01,-0.01 -0.017,-0.01 -0.017,-0.01 -27.663,7.518 -56.877,11.713 -87.142,11.883 -174.496,0.983 -316.82,-129.34 -317.888,-291.081 0,-0.898 0.059,-1.788 0.059,-2.686 -14.28,1.788 -28.815,2.847 -43.604,2.932 -186.523,1.051 -338.661,-138.248 -339.796,-311.142 -0.297,-44.749 9.627,-87.337 27.629,-125.941 0,-0.008 -0.009,-0.017 -0.017,-0.017 -9.383,0.78 -18.849,1.297 -28.435,1.347 -186.522,1.06 -338.66,-138.238 -339.796,-311.132 -0.296,-44.749 9.628,-87.337 27.63,-125.942 0.008,-0.008 0,-0.017 -0.009,-0.017 -9.383,0.78 -18.849,1.297 -28.434,1.348 -4.399,0.025 -8.772,-0.034 -13.129,-0.161 C -137.29,271.138 -148.122,42.622 0,0" /></g><g
           transform="translate(773.0391,2542.4749)"
           id="g28"><path
             id="path30"
             style="fill:#ef4a50;fill-opacity:1;fill-rule:nonzero;stroke:none"
             d="m 0,0 443.372,-2390.879 c 16.289,-87.862 92.93,-151.596 182.284,-151.596 h 215.881 370.052 370.053 370.052 215.88 c 89.355,0 165.996,63.734 182.285,151.596 L 2793.23,0 c 31.69,170.911 -99.49,328.66 -273.316,328.66 -141.629,0 -260.612,-106.482 -276.274,-247.239 l -6.84,-61.479 c 18.323,164.682 -110.575,308.718 -276.266,308.718 h -4.552 c -149.51,0 -272.24,-118.263 -277.783,-267.672 l -0.762,-20.603 c 5.839,157.452 -120.221,288.275 -277.784,288.275 h -6.076 c -157.562,0 -283.622,-130.823 -277.783,-288.275 l -0.763,20.603 C 1109.489,210.397 986.759,328.66 837.248,328.66 h -4.551 c -165.69,0 -294.59,-144.036 -276.266,-308.718 l -6.84,61.479 C 533.929,222.178 414.946,328.66 273.317,328.66 99.49,328.66 -31.697,170.911 0,0" /></g><g
           transform="translate(774.0308,2537.1272)"
           id="g32"><path
             id="path34"
             style="fill:#dd2a37;fill-opacity:1;fill-rule:nonzero;stroke:none"
             d="m 0,0 409.912,-2210.425 32.468,-175.106 c 16.289,-87.863 92.931,-151.596 182.285,-151.596 h 215.88 253.637 116.416 370.052 370.053 215.88 c 89.354,0 165.996,63.733 182.285,151.587 l 32.468,175.106 c -32.468,-64.445 -99.007,-107.388 -174.199,-107.388 H 1979.9 1590.379 1200.86 c -174.759,0 -324.643,124.644 -356.51,296.47 L 468.518,5.339 C 455.059,77.913 471.052,148.062 507.122,204.82 455.313,286.453 362.459,338.542 259.027,333.694 84.506,325.507 -31.858,171.792 0,0" /></g><g
           transform="translate(1329.4785,2562.4089)"
           id="g36"><path
             id="path38"
             style="fill:#f2ebda;fill-opacity:1;fill-rule:nonzero;stroke:none"
             d="m 0,0 c -18.324,164.682 110.576,308.717 276.266,308.717 h 4.551 c 149.511,0 272.241,-118.262 277.783,-267.672 l 96.558,-2603.454 H 285.105 Z" /></g><g
           transform="translate(774.0308,2537.1272)"
           id="g40"><path
             id="path42"
             style="fill:#dd2a37;fill-opacity:1;fill-rule:nonzero;stroke:none"
             d="m 0,0 409.912,-2210.425 32.468,-175.106 c 16.289,-87.863 92.931,-151.596 182.285,-151.596 h 215.88 253.637 116.416 370.052 370.053 215.88 c 89.354,0 165.996,63.733 182.285,151.587 l 32.468,175.106 c -32.468,-64.445 -99.007,-107.388 -174.199,-107.388 H 1979.9 1590.379 1200.86 c -174.759,0 -324.643,124.644 -356.51,296.47 L 468.518,5.339 C 455.059,77.913 471.052,148.062 507.122,204.82 455.313,286.453 362.459,338.542 259.027,333.694 84.506,325.507 -31.858,171.792 0,0" /></g><g
           transform="translate(1329.4785,2562.4089)"
           id="g44"><path
             id="path46"
             style="fill:#f2ebda;fill-opacity:1;fill-rule:nonzero;stroke:none"
             d="m 0,0 c -18.324,164.682 110.576,308.717 276.266,308.717 h 4.551 c 149.511,0 272.241,-118.262 277.783,-267.672 l 96.558,-2603.454 H 285.105 Z" /></g><g
           transform="translate(1465.3867,1340.8195)"
           id="g48"><path
             id="path50"
             style="fill:#e5decf;fill-opacity:1;fill-rule:nonzero;stroke:none"
             d="m 0,0 149.189,-1340.819 h 253.637 116.416 l -8.137,219.312 h -1.602 c -174.758,0 -324.642,124.645 -356.509,296.471 z" /></g><g
           transform="translate(2925.9014,3216.8889)"
           id="g52"><path
             id="path54"
             style="fill:#fcdc97;fill-opacity:1;fill-rule:nonzero;stroke:none"
             d="m 0,0 c 0,105.288 -85.659,190.955 -190.955,190.955 -36.19,0 -65.522,29.333 -65.522,65.522 0,36.189 29.332,65.522 65.522,65.522 177.547,0 321.998,-144.452 321.998,-321.999 0,-36.189 -29.333,-65.521 -65.522,-65.521 C 29.341,-65.521 0.008,-36.189 0,0" /></g><g
           transform="translate(1296.9082,2960.4041)"
           id="g56"><path
             id="path58"
             style="fill:#fcdc97;fill-opacity:1;fill-rule:nonzero;stroke:none"
             d="m 0,0 c 0,177.547 144.443,321.999 321.998,321.999 36.189,0 65.522,-29.333 65.522,-65.522 0,-36.189 -29.333,-65.522 -65.522,-65.522 -105.287,0 -190.955,-85.659 -190.955,-190.955 0,-36.189 -29.332,-65.522 -65.521,-65.522 C 29.333,-65.522 0,-36.181 0,0" /></g><g
           transform="translate(1916.6147,3705.7468)"
           id="g60"><path
             id="path62"
             style="fill:#fcdc97;fill-opacity:1;fill-rule:nonzero;stroke:none"
             d="m 0,0 c -35.333,7.848 -57.606,42.842 -49.758,78.167 38.503,173.334 210.838,283.004 384.147,244.535 35.324,-7.84 57.606,-42.842 49.758,-78.167 -7.84,-35.316 -42.816,-57.598 -78.167,-49.758 C 203.167,217.592 100.999,152.545 78.158,49.758 71.37,19.213 44.292,-1.576 14.255,-1.568 9.552,-1.568 4.763,-1.059 0,0" /></g><g
           transform="translate(2451.2305,2603.4622)"
           id="g64"><path
             id="path66"
             style="fill:#f2ebda;fill-opacity:1;fill-rule:nonzero;stroke:none"
             d="m 0,0 c 5.543,149.41 128.271,267.672 277.783,267.672 h 4.551 c 165.69,0 294.59,-144.044 276.267,-308.717 L 273.494,-2603.462 H -96.559 Z" /></g><g
           transform="translate(2362.8174,219.3126)"
           id="g68"><path
             id="path70"
             style="fill:#e5decf;fill-opacity:1;fill-rule:nonzero;stroke:none"
             d="M 0,0 -8.146,-219.312 H 361.916 L 386.316,0 H 1.593 Z" /></g><g
           transform="translate(3033.5361,1390.6105)"
           id="g72"><path
             id="path74"
             style="fill:#9ad9d4;fill-opacity:1;fill-rule:nonzero;stroke:none"
             d="m 0,0 c 0,-328.961 -386.771,-595.637 -863.877,-595.637 -477.106,0 -863.877,266.676 -863.877,595.637 0,328.961 386.771,595.637 863.877,595.637 C -386.771,595.637 0,328.961 0,0" /></g></g></g></g></svg>