<?xml version="1.0" encoding="UTF-8" standalone="no"?>
<svg
   xmlns:dc="http://purl.org/dc/elements/1.1/"
   xmlns:cc="http://creativecommons.org/ns#"
   xmlns:rdf="http://www.w3.org/1999/02/22-rdf-syntax-ns#"
   xmlns:svg="http://www.w3.org/2000/svg"
   xmlns="http://www.w3.org/2000/svg"
   viewBox="0 0 384 384"
   height="384"
   width="384"
   xml:space="preserve"
   id="svg2"
   version="1.1"><metadata
     id="metadata8"><rdf:RDF><cc:Work
         rdf:about=""><dc:format>image/svg+xml</dc:format><dc:type
           rdf:resource="http://purl.org/dc/dcmitype/StillImage" /></cc:Work></rdf:RDF></metadata><defs
     id="defs6"><clipPath
       id="clipPath42"
       clipPathUnits="userSpaceOnUse"><path
         id="path40"
         d="M 0,288 H 288 V 0 H 0 Z" /></clipPath></defs><g
     transform="matrix(1.3333333,0,0,-1.3333333,0,384)"
     id="g10"><g
       transform="translate(144.0796,272.0337)"
       id="g12"><path
         id="path14"
         style="fill:#848282;fill-opacity:1;fill-rule:nonzero;stroke:none"
         d="m 0,0 3.156,-64.309 9.437,63.691 -3.165,-64.31 15.635,62.46 -9.453,-63.69 21.685,60.626 -15.655,-62.454 27.521,58.207 -21.696,-60.619 33.094,55.229 -27.536,-58.202 38.348,51.72 -33.107,-55.223 43.234,47.713 -38.359,-51.711 47.7,43.246 -43.246,-47.703 51.712,38.361 -47.711,-43.233 55.221,33.107 -51.72,-38.348 58.201,27.536 -55.229,-33.095 60.621,21.698 -58.207,-27.522 62.453,15.653 -60.625,-21.685 63.688,9.455 -62.459,-15.638 64.308,3.167 -63.689,-9.439 64.308,-3.152 -64.308,-3.153 63.689,-9.437 -64.308,3.166 62.459,-15.637 -63.688,9.453 60.625,-21.684 -62.453,15.652 58.207,-27.52 -60.621,21.698 55.229,-33.095 -58.201,27.535 51.72,-38.347 -55.221,33.105 47.711,-43.232 -51.712,38.359 43.246,-47.7 -47.7,43.246 38.359,-51.712 -43.234,47.711 33.107,-55.223 -38.348,51.722 27.536,-58.201 -33.094,55.228 21.696,-60.618 -27.521,58.206 15.655,-62.454 -21.685,60.626 9.453,-63.691 L 9.428,-192 12.593,-256.308 3.156,-192.62 0,-256.928 l -3.15,64.308 -9.439,-63.688 3.166,64.308 -15.635,-62.461 9.453,63.691 -21.685,-60.626 15.652,62.454 -27.52,-58.206 21.698,60.618 -33.095,-55.228 27.535,58.201 -38.349,-51.722 33.107,55.223 -43.234,-47.711 38.362,51.712 -47.7,-43.246 43.244,47.7 -51.712,-38.359 47.713,43.232 -55.224,-33.105 51.722,38.347 -58.203,-27.535 55.231,33.095 -60.62,-21.698 58.207,27.52 -62.453,-15.652 60.624,21.684 -63.69,-9.453 62.459,15.637 -64.308,-3.166 63.69,9.437 -64.309,3.153 64.309,3.152 -63.69,9.439 64.308,-3.167 -62.459,15.638 63.69,-9.455 -60.624,21.685 62.453,-15.653 -58.207,27.522 60.62,-21.698 -55.231,33.095 58.203,-27.536 -51.722,38.348 55.224,-33.107 -47.713,43.233 51.712,-38.361 -43.244,47.703 47.7,-43.246 -38.362,51.711 43.234,-47.713 -33.107,55.223 38.349,-51.72 -27.535,58.202 33.095,-55.229 -21.698,60.619 27.52,-58.207 -15.652,62.454 21.685,-60.626 -9.453,63.69 15.635,-62.46 -3.166,64.31 9.439,-63.691 z" /></g><g
       transform="translate(144.0796,277.4658)"
       id="g16"><path
         id="path18"
         style="fill:#ffffff;fill-opacity:1;fill-rule:nonzero;stroke:none"
         d="m 0,0 25.622,-72.043 69.057,32.825 -32.827,-69.059 72.047,-25.619 -72.047,-25.618 32.827,-69.059 -69.057,32.824 L 0,-267.791 l -25.617,72.042 -69.059,-32.824 32.826,69.059 -72.044,25.618 72.044,25.619 -32.826,69.059 69.059,-32.825 z" /></g><g
       transform="translate(144.0796,277.4658)"
       id="g20"><path
         id="path22"
         style="fill:none;stroke:#231f20;stroke-width:1.90699995;stroke-linecap:butt;stroke-linejoin:miter;stroke-miterlimit:10;stroke-dasharray:none;stroke-opacity:1"
         d="m 0,0 25.622,-72.043 69.057,32.825 -32.827,-69.059 72.047,-25.619 -72.047,-25.618 32.827,-69.059 -69.057,32.824 L 0,-267.791 l -25.617,72.042 -69.059,-32.824 32.826,69.059 -72.044,25.618 72.044,25.619 -32.826,69.059 69.059,-32.825 z" /></g><g
       transform="translate(144.0796,227.4316)"
       id="g24"><path
         id="path26"
         style="fill:#231f20;fill-opacity:1;fill-rule:nonzero;stroke:none"
         d="M 0,0 16.047,-45.122 59.299,-24.563 38.74,-67.816 83.864,-83.861 38.74,-99.907 59.299,-143.16 16.047,-122.601 0,-167.726 l -16.045,45.125 -43.254,-20.559 20.563,43.253 -45.125,16.046 45.125,16.045 -20.563,43.253 43.254,-20.559 z" /></g><g
       transform="translate(144.0796,227.4316)"
       id="g28"><path
         id="path30"
         style="fill:none;stroke:#231f20;stroke-width:1.90699995;stroke-linecap:butt;stroke-linejoin:miter;stroke-miterlimit:10;stroke-dasharray:none;stroke-opacity:1"
         d="M 0,0 16.047,-45.122 59.299,-24.563 38.74,-67.816 83.864,-83.861 38.74,-99.907 59.299,-143.16 16.047,-122.601 0,-167.726 l -16.045,45.125 -43.254,-20.559 20.563,43.253 -45.125,16.046 45.125,16.045 -20.563,43.253 43.254,-20.559 z" /></g><g
       transform="translate(201.0967,134.874)"
       id="g32"><path
         id="path34"
         style="fill:#353132;fill-opacity:1;fill-rule:nonzero;stroke:none"
         d="M 0,0 -28.267,5.426 0.833,4.327 -27.985,7.602 1.113,8.695 -27.985,9.79 0.833,13.065 -28.267,11.967 0,17.391 l -28.819,-3.28 22.827,6.262 -0.689,0.246 -22.967,-4.414 17.518,6.351 -1.232,0.438 -17.382,-4.769 13.435,6.172 -0.968,0.345 0.242,0.509 -14.049,-5.097 15.934,9.06 0.493,1.04 -18.014,-8.282 21.02,14.604 0.047,0.099 -22.878,-13.012 19.568,16.552 -21.586,-15.006 17.362,17.943 -19.566,-16.554 14.983,19.16 -17.354,-17.945 12.46,20.195 -14.974,-19.164 9.817,21.034 -12.454,-20.197 6.02,18.419 -0.195,0.552 -8.553,-18.337 4.279,22.1 -7.077,-21.672 1.432,22.314 -4.27,-22.099 -1.427,22.313 -1.424,-22.313 -4.273,22.099 1.433,-22.314 -7.076,21.672 4.278,-22.1 -8.551,18.334 -0.197,-0.552 6.018,-18.416 -12.453,20.197 9.821,-21.034 -14.976,19.164 12.459,-20.195 -17.353,17.945 14.982,-19.16 -19.565,16.554 17.36,-17.943 -21.585,15.006 19.569,-16.552 -22.876,13.011 0.046,-0.098 21.02,-14.604 -18.015,8.282 0.496,-1.041 15.934,-9.059 -14.052,5.097 0.244,-0.509 -0.969,-0.345 13.432,-6.172 -17.378,4.769 -1.234,-0.438 17.519,-6.351 -22.966,4.414 -0.688,-0.245 22.829,-6.263 -28.822,3.28 28.265,-5.424 -29.101,1.098 L -86.048,9.79 -115.146,8.695 -86.048,7.602 -114.866,4.327 -85.765,5.426 -114.03,0 l 28.822,3.279 -22.828,-6.259 0.69,-0.248 22.963,4.416 -17.516,-6.352 1.232,-0.438 17.377,4.769 -13.431,-6.173 0.968,-0.344 -0.245,-0.511 14.053,5.099 -15.935,-9.06 -0.495,-1.04 18.015,8.281 -21.02,-14.605 -0.046,-0.097 22.876,13.01 -19.569,-16.549 21.585,15.004 -17.36,-17.943 19.565,16.555 -14.982,-19.162 17.353,17.947 -12.459,-20.197 14.976,19.165 -9.821,-21.033 12.453,20.196 -6.018,-18.416 0.197,-0.552 8.551,18.335 -4.278,-22.101 7.076,21.673 -1.433,-22.313 4.273,22.1 1.424,-22.317 1.427,22.317 4.27,-22.1 -1.432,22.313 7.077,-21.673 -4.279,22.101 8.553,-18.337 0.195,0.552 -6.02,18.418 12.454,-20.196 -9.817,21.033 14.974,-19.165 -12.46,20.197 17.354,-17.947 -14.983,19.162 19.566,-16.555 -17.362,17.943 21.586,-15.004 -19.568,16.549 22.878,-13.011 -0.047,0.098 -21.02,14.605 18.014,-8.282 -0.493,1.041 -15.934,9.06 14.051,-5.099 -0.244,0.511 0.966,0.344 -13.433,6.173 17.38,-4.769 1.232,0.438 -17.516,6.352 22.965,-4.414 0.69,0.246 -22.826,6.259 z" /></g><g
       id="g36"><g
         clip-path="url(#clipPath42)"
         id="g38"><g
           transform="translate(144.082,122.2744)"
           id="g44"><path
             id="path46"
             style="fill:#ffffff;fill-opacity:1;fill-rule:nonzero;stroke:none"
             d="m 0,0 c -16.356,0 -31.419,7.487 -41.326,20.543 l -0.571,0.753 0.571,0.753 C -31.42,35.104 -16.357,42.592 0,42.592 c 16.356,0 31.418,-7.488 41.323,-20.544 l 0.572,-0.752 -0.572,-0.753 C 31.418,7.487 16.355,0 0,0" /></g><g
           transform="translate(144.082,166.1113)"
           id="g48"><path
             id="path50"
             style="fill:#231f20;fill-opacity:1;fill-rule:nonzero;stroke:none"
             d="m 0,0 c -16.75,0 -32.174,-7.667 -42.318,-21.036 l -1.142,-1.505 1.142,-1.506 C -32.173,-37.415 -16.749,-45.082 0,-45.082 c 16.749,0 32.172,7.667 42.315,21.036 l 1.142,1.505 -1.142,1.505 C 32.173,-7.667 16.75,0 0,0 m 0,-2.49 c 16.467,0 31.091,-7.871 40.331,-20.051 C 31.091,-34.72 16.467,-42.592 0,-42.592 c -16.469,0 -31.092,7.872 -40.334,20.051 9.242,12.18 23.865,20.051 40.334,20.051" /></g><g
           transform="translate(144.082,127.3721)"
           id="g52"><path
             id="path54"
             style="fill:#ffffff;fill-opacity:1;fill-rule:nonzero;stroke:none"
             d="m 0,0 c -8.931,0 -16.197,7.266 -16.197,16.197 0,8.932 7.266,16.199 16.197,16.199 8.932,0 16.197,-7.267 16.197,-16.199 C 16.197,7.266 8.932,0 0,0" /></g><g
           transform="translate(144.082,161.0132)"
           id="g56"><path
             id="path58"
             style="fill:#231f20;fill-opacity:1;fill-rule:nonzero;stroke:none"
             d="m 0,0 c -9.618,0 -17.442,-7.825 -17.442,-17.444 0,-9.618 7.824,-17.442 17.442,-17.442 9.618,0 17.442,7.824 17.442,17.442 C 17.442,-7.825 9.618,0 0,0 m 0,-2.49 c 8.258,0 14.952,-6.696 14.952,-14.954 0,-8.258 -6.694,-14.952 -14.952,-14.952 -8.259,0 -14.952,6.694 -14.952,14.952 0,8.258 6.693,14.954 14.952,14.954" /></g><g
           transform="translate(153.5215,143.5693)"
           id="g60"><path
             id="path62"
             style="fill:#231f20;fill-opacity:1;fill-rule:nonzero;stroke:none"
             d="m 0,0 c 0,-5.213 -4.228,-9.439 -9.439,-9.439 -5.215,0 -9.44,4.226 -9.44,9.439 0,5.215 4.225,9.441 9.44,9.441 C -4.228,9.441 0,5.215 0,0" /></g><g
           transform="translate(144.0796,156.7441)"
           id="g64"><path
             id="path66"
             style="fill:#231f20;fill-opacity:1;fill-rule:nonzero;stroke:none"
             d="M 0,0 0.421,-8.823 2.5,-0.239 1.241,-8.981 4.91,-0.946 2.019,-9.292 l 5.122,7.196 -4.418,-7.649 6.392,6.097 -5.786,-6.674 7.428,4.777 -6.943,-5.458 8.198,3.284 -7.851,-4.046 8.672,1.673 -8.474,-2.486 8.832,0.002 -8.792,-0.838 8.672,-1.669 -8.79,0.841 8.199,-3.281 -8.476,2.491 7.432,-4.775 -7.849,4.049 6.394,-6.093 -6.94,5.46 5.124,-7.192 -5.785,6.676 3.673,-8.033 -4.416,7.649 2.084,-8.582 -2.886,8.347 0.42,-8.822 -1.255,8.742 -1.253,-8.742 0.423,8.822 -2.888,-8.347 2.084,8.582 -4.414,-7.649 3.67,8.033 -5.782,-6.676 5.124,7.192 -6.941,-5.46 6.394,6.093 -7.851,-4.049 7.433,4.775 -8.476,-2.491 8.201,3.281 -8.793,-0.841 8.675,1.669 -8.794,0.838 8.834,-0.002 -8.477,2.486 8.675,-1.673 -7.854,4.046 8.201,-3.284 -6.943,5.458 7.426,-4.777 -5.784,6.674 6.391,-6.097 -4.417,7.649 5.122,-7.196 -2.89,8.346 3.666,-8.035 -1.259,8.742 2.08,-8.584 z" /></g><g
           transform="translate(150.0303,147.5532)"
           id="g68"><path
             id="path70"
             style="fill:#ffffff;fill-opacity:1;fill-rule:nonzero;stroke:none"
             d="m 0,0 c 0,-1.352 -1.097,-2.447 -2.447,-2.447 -1.35,0 -2.446,1.095 -2.446,2.447 0,1.351 1.096,2.447 2.446,2.447 C -1.097,2.447 0,1.351 0,0" /></g><g
           transform="translate(103.7485,142.3252)"
           id="g72"><path
             id="path74"
             style="fill:#ffffff;fill-opacity:1;fill-rule:nonzero;stroke:none"
             d="m 0,0 c -0.316,0 -0.63,0.119 -0.871,0.355 -0.449,0.439 -0.501,1.143 -0.122,1.643 9.907,13.055 24.97,20.543 41.326,20.543 16.357,0 31.418,-7.488 41.324,-20.543 0.379,-0.5 0.327,-1.204 -0.121,-1.644 C 81.294,0.119 80.98,0 80.665,0 80.391,0 80.118,0.089 79.89,0.27 70.44,7.774 56.022,12.078 40.333,12.078 24.645,12.078 10.226,7.774 0.774,0.27 0.546,0.089 0.272,0 0,0" /></g><g
           transform="translate(144.082,166.1113)"
           id="g76"><path
             id="path78"
             style="fill:#231f20;fill-opacity:1;fill-rule:nonzero;stroke:none"
             d="m 0,0 c -16.75,0 -32.174,-7.667 -42.318,-21.036 -0.759,-1 -0.655,-2.407 0.242,-3.285 0.482,-0.471 1.111,-0.71 1.743,-0.71 0.545,0 1.092,0.177 1.547,0.54 9.1,7.224 23.6,11.537 38.786,11.537 15.186,0 29.684,-4.313 38.782,-11.537 0.456,-0.363 1.003,-0.54 1.548,-0.54 0.632,0 1.261,0.239 1.742,0.71 0.898,0.878 1.001,2.285 0.243,3.285 C 32.173,-7.667 16.75,0 0,0 m 0,-2.49 c 16.467,0 31.091,-7.871 40.331,-20.051 -9.24,7.337 -23.864,12.078 -40.331,12.078 -16.469,0 -31.092,-4.741 -40.334,-12.078 9.242,12.18 23.865,20.051 40.334,20.051" /></g></g></g></g></svg>