<?xml version='1.0' encoding='utf-8'?>
<svg xmlns="http://www.w3.org/2000/svg" version="1.1" id="Frame_0" width="1280px" height="720px"> <g id="Layer_5"> <path fill="#5abced" fill-rule="evenodd" stroke="#000000" stroke-width="3" stroke-linecap="round" stroke-linejoin="round" d="M 652.130 42.399 C 839.852 47.406 947.145 180.490 927.790 291.350 C 911.689 383.571 804.923 421.365 648.731 424.008 C 483.578 426.803 366.243 389.879 349.755 292.276 C 329.959 175.090 453.883 37.111 652.130 42.399 Z"/> <path fill="#0b6f87" fill-rule="evenodd" stroke="none" d="M 917.669 286.381 C 917.669 286.381 917.669 286.381 917.669 286.381 C 917.621 268.033 921.610 243.105 917.511 225.220 C 913.254 206.650 900.818 183.645 889.901 168.032 C 872.467 143.101 843.516 113.156 818.131 96.391 C 795.779 81.629 761.322 69.658 735.479 62.614 C 720.846 58.625 700.525 57.077 685.545 54.704 C 685.545 54.704 685.545 54.704 685.545 54.704 C 684.102 56.827 680.852 59.216 680.735 61.780 C 680.630 64.099 683.398 66.501 684.404 68.593 C 684.987 69.808 685.331 71.673 686.179 72.720 C 690.757 78.370 701.017 80.968 707.161 84.858 C 727.525 97.749 756.402 113.501 772.830 131.137 C 793.143 152.943 811.708 189.231 823.386 216.649 C 831.492 235.679 842.478 282.893 842.480 282.900 C 865.037 283.944 917.661 286.381 917.669 286.381 C 917.669 286.381 917.669 286.381 917.669 286.381 Z"/> <path fill="none" stroke="#0b6f87" stroke-width="3" stroke-linecap="round" stroke-linejoin="round" d="M 842.480 282.900 C 842.480 282.900 842.480 282.900 842.480 282.900 C 842.478 282.893 831.492 235.679 823.386 216.649 C 811.708 189.231 793.143 152.943 772.830 131.137 C 756.402 113.501 727.525 97.749 707.161 84.858 C 701.017 80.968 690.757 78.370 686.179 72.720 C 685.331 71.673 684.987 69.808 684.404 68.593 C 683.398 66.501 680.630 64.099 680.735 61.780 C 680.852 59.216 684.102 56.827 685.545 54.704 C 700.525 57.077 720.846 58.625 735.479 62.614 C 761.322 69.658 795.779 81.629 818.131 96.391 C 843.516 113.156 872.467 143.101 889.901 168.032 C 900.818 183.645 913.254 206.650 917.511 225.220 C 921.610 243.105 917.621 268.033 917.669 286.381 C 917.669 286.381 917.669 286.381 917.669 286.381 C 917.661 286.381 865.037 283.944 842.480 282.900 M 685.545 54.704 C 685.545 54.704 685.545 54.704 685.545 54.704 M 917.669 286.381 C 917.669 286.381 917.669 286.381 917.669 286.381 "/> <path fill="#a1d4e5" fill-rule="evenodd" stroke="#a1d4e5" stroke-width="3" stroke-linecap="round" stroke-linejoin="round" d="M 465.215 282.561 C 465.215 282.561 465.215 282.561 465.215 282.561 C 465.751 274.925 465.966 264.693 467.001 257.109 C 470.082 234.538 475.562 204.376 483.254 182.933 C 489.775 164.753 501.824 141.696 512.350 125.502 C 518.283 116.376 529.437 106.503 534.951 97.118 C 535.729 95.794 536.616 93.926 537.072 92.460 C 538.009 89.449 540.455 84.715 538.724 82.080 C 536.457 78.630 529.356 79.113 525.235 79.361 C 508.151 80.388 487.373 92.688 472.547 101.240 C 453.796 112.057 429.978 129.333 415.503 145.428 C 399.930 162.746 381.970 189.404 374.895 211.592 C 369.624 228.124 371.625 251.946 370.224 269.241 C 370.224 269.241 370.224 269.241 370.224 269.241 C 386.251 272.814 407.355 279.118 423.650 281.151 C 436.030 282.695 465.211 282.560 465.215 282.561 C 465.215 282.561 465.215 282.561 465.215 282.561 Z"/> <path fill="#033152" fill-rule="evenodd" stroke="#020202" stroke-width="3" stroke-linecap="round" stroke-linejoin="round" d="M 1020.256 337.487 C 1020.256 337.487 1020.256 337.487 1020.256 337.487 C 1009.748 325.633 996.669 308.933 985.231 297.974 C 976.983 290.072 965.576 279.729 955.807 273.809 C 935.536 261.525 905.079 251.515 882.447 244.472 C 857.790 236.800 823.988 229.550 798.476 225.558 C 760.398 219.600 708.969 216.216 670.451 214.856 C 631.171 213.469 578.605 213.157 539.448 216.558 C 494.208 220.488 433.778 228.710 390.075 241.043 C 356.036 250.649 310.033 265.268 280.685 285.006 C 265.539 295.193 250.302 314.853 237.280 327.645 C 237.280 327.645 237.280 327.645 237.280 327.645 C 472.173 330.598 1020.177 337.486 1020.256 337.487 C 1020.256 337.487 1020.256 337.487 1020.256 337.487 Z"/> <path fill="#033152" fill-rule="evenodd" stroke="#000000" stroke-width="3" stroke-linecap="round" stroke-linejoin="round" d="M 640.048 252.234 C 1062.030 258.150 1234.817 383.019 1231.054 479.037 C 1227.349 573.581 1050.568 665.965 635.052 661.498 C 216.144 656.994 39.748 559.741 38.379 464.362 C 36.989 367.530 214.775 246.271 640.048 252.234 Z"/> <path fill="#003d69" fill-rule="evenodd" stroke="#003d69" stroke-width="3" stroke-linecap="round" stroke-linejoin="round" d="M 129.359 406.676 C 127.770 400.799 123.495 393.147 124.062 387.085 C 124.394 383.529 125.647 377.765 128.850 376.183 C 134.169 373.556 142.272 379.902 147.554 382.604 C 163.673 390.848 180.230 409.585 195.698 418.993 C 211.833 428.806 234.830 439.478 252.524 446.078 C 265.051 450.751 283.841 451.491 295.412 458.187 C 304.890 463.671 318.576 472.963 321.767 483.437 C 325.051 494.217 321.758 512.309 313.623 520.107 C 299.826 533.333 269.330 527.584 250.244 526.578 C 223.190 525.152 188.344 513.674 162.081 507.031 C 138.033 500.948 103.513 497.685 82.544 484.433 C 76.096 480.358 67.064 473.555 64.725 466.295 C 63.280 461.808 64.843 455.114 66.428 450.675 C 69.885 440.995 79.511 430.494 86.221 422.708 C 89.468 418.940 93.440 412.957 98.050 411.087 C 102.831 409.148 110.149 412.034 115.247 411.241 C 119.644 410.556 125.126 408.045 129.359 406.676 C 129.359 406.676 129.359 406.676 129.359 406.676 Z"/> <path fill="#011b2c" fill-rule="evenodd" stroke="none" d="M 473.371 652.948 C 473.371 652.948 473.371 652.948 473.371 652.948 C 540.711 601.622 622.373 520.257 697.836 481.861 C 732.593 464.177 784.375 453.741 821.424 441.572 C 847.199 433.107 884.316 427.621 907.280 413.176 C 930.935 398.295 957.186 369.816 971.844 346.022 C 980.473 332.014 985.360 310.091 991.152 294.692 C 991.152 294.692 991.152 294.692 991.152 294.692 C 1018.709 304.361 1056.815 314.006 1083.007 326.922 C 1120.396 345.361 1171.120 372.666 1198.653 403.969 C 1210.980 417.985 1224.722 440.336 1228.346 458.647 C 1230.884 471.477 1228.675 489.651 1224.615 502.084 C 1220.456 514.823 1210.599 530.503 1201.395 540.244 C 1180.668 562.178 1144.187 582.146 1116.571 594.313 C 1056.612 620.730 969.154 636.310 904.323 645.792 C 860.646 652.179 801.566 653.257 757.443 654.537 C 672.256 657.009 473.400 652.948 473.371 652.948 C 473.371 652.948 473.371 652.948 473.371 652.948 Z"/> <path fill="none" stroke="#000000" stroke-width="3" stroke-linecap="round" stroke-linejoin="round" d="M 473.371 652.948 C 473.371 652.948 473.371 652.948 473.371 652.948 M 991.152 294.692 C 991.152 294.692 991.152 294.692 991.152 294.692 C 1018.709 304.361 1056.815 314.006 1083.007 326.922 C 1120.396 345.361 1171.120 372.666 1198.653 403.969 C 1210.980 417.985 1224.722 440.336 1228.346 458.647 C 1230.884 471.477 1228.675 489.651 1224.615 502.084 C 1220.456 514.823 1210.599 530.503 1201.395 540.244 C 1180.668 562.178 1144.187 582.146 1116.571 594.313 C 1056.612 620.730 969.154 636.310 904.323 645.792 C 860.646 652.179 801.566 653.257 757.443 654.537 C 672.256 657.009 473.400 652.948 473.371 652.948 C 473.371 652.948 473.371 652.948 473.371 652.948 "/> <path fill="#01851f" fill-rule="evenodd" stroke="#000000" stroke-width="3" stroke-linecap="round" stroke-linejoin="round" d="M 1074.794 557.996 C 1090.192 558.133 1096.258 565.682 1096.199 572.265 C 1096.141 578.847 1089.941 586.288 1074.543 586.150 C 1059.146 586.013 1053.081 578.464 1053.139 571.881 C 1053.198 565.298 1059.397 557.859 1074.794 557.996 Z"/> <path fill="#01851f" fill-rule="evenodd" stroke="#000000" stroke-width="3" stroke-linecap="round" stroke-linejoin="round" d="M 1140.070 481.561 C 1120.789 481.389 1112.658 490.966 1112.581 499.535 C 1112.505 508.104 1120.465 517.824 1139.745 517.996 C 1159.026 518.168 1167.157 508.591 1167.233 500.022 C 1167.310 491.453 1159.350 481.733 1140.070 481.561 Z"/> <path fill="#01851f" fill-rule="evenodd" stroke="#000000" stroke-width="3" stroke-linecap="round" stroke-linejoin="round" d="M 1077.298 416.408 C 1065.872 406.948 1047.058 410.130 1037.063 424.330 C 1027.257 438.262 1029.660 458.137 1042.920 464.133 C 1057.880 470.898 1072.994 455.859 1080.005 437.963 C 1083.360 429.398 1083.351 421.419 1077.298 416.408 Z"/> <path fill="#01851f" fill-rule="evenodd" stroke="#000000" stroke-width="3" stroke-linecap="round" stroke-linejoin="round" d="M 948.594 360.132 C 935.390 351.739 920.836 364.428 911.745 378.174 C 902.865 391.603 897.042 409.350 909.510 418.192 C 922.410 427.340 938.302 415.687 947.644 401.895 C 957.053 388.002 962.039 368.677 948.594 360.132 Z"/> <path fill="#00fc1f" fill-rule="evenodd" stroke="#000000" stroke-width="3" stroke-linecap="round" stroke-linejoin="round" d="M 797.663 327.329 C 782.627 321.726 769.627 334.949 762.268 350.240 C 753.644 368.158 751.001 391.542 768.130 399.299 C 785.580 407.201 802.694 389.660 809.455 370.563 C 815.474 353.560 813.645 333.284 797.663 327.329 Z"/> <path fill="#00fc1f" fill-rule="evenodd" stroke="#000000" stroke-width="3" stroke-linecap="round" stroke-linejoin="round" d="M 640.564 313.336 C 652.752 313.445 666.944 324.540 666.661 356.344 C 666.377 388.147 651.990 398.988 639.802 398.879 C 627.615 398.770 613.422 387.675 613.706 355.872 C 613.989 324.068 628.376 313.227 640.564 313.336 Z"/> <path fill="#00fc1f" fill-rule="evenodd" stroke="#000000" stroke-width="3" stroke-linecap="round" stroke-linejoin="round" d="M 498.229 323.611 C 513.097 322.576 526.900 337.966 528.090 363.257 C 529.063 383.940 519.831 396.779 507.748 398.382 C 493.377 400.289 477.595 387.289 475.135 362.785 C 472.817 339.704 484.607 324.559 498.229 323.611 Z"/> <path fill="#00fc1f" fill-rule="evenodd" stroke="#000000" stroke-width="3" stroke-linecap="round" stroke-linejoin="round" d="M 343.576 352.302 C 357.398 347.416 371.751 361.548 377.569 382.074 C 381.377 395.506 379.085 406.852 370.315 410.741 C 357.619 416.370 341.765 405.820 334.796 386.849 C 328.993 371.052 332.673 356.156 343.576 352.302 Z"/> <path fill="#00fc1f" fill-rule="evenodd" stroke="#000000" stroke-width="3" stroke-linecap="round" stroke-linejoin="round" d="M 202.954 404.122 C 214.196 393.055 233.139 400.179 244.766 413.758 C 253.359 423.792 256.669 437.055 248.386 445.259 C 237.489 456.054 219.186 449.875 207.487 437.019 C 198.175 426.786 194.254 412.687 202.954 404.122 Z"/> <path fill="#00fc1f" fill-rule="evenodd" stroke="#000000" stroke-width="3" stroke-linecap="round" stroke-linejoin="round" d="M 153.742 474.606 C 171.327 483.123 174.110 493.602 171.090 500.667 C 168.350 507.077 160.167 511.821 143.281 506.433 C 120.875 499.284 115.020 486.542 118.554 477.994 C 121.868 469.975 133.886 464.989 153.742 474.606 Z"/> <path fill="#00fc1f" fill-rule="evenodd" stroke="#000000" stroke-width="3" stroke-linecap="round" stroke-linejoin="round" d="M 203.707 552.308 C 192.367 552.207 185.835 559.141 185.774 566.026 C 185.713 572.912 192.119 579.961 203.459 580.062 C 214.800 580.163 221.331 573.229 221.392 566.344 C 221.454 559.458 215.047 552.409 203.707 552.308 Z"/> <path fill="#1b1b1b" fill-rule="evenodd" stroke="#000000" stroke-width="5" stroke-linecap="round" stroke-linejoin="round" d="M 641.968 436.878 C 908.129 440.605 1025.747 510.424 1025.757 547.010 C 1025.767 583.360 909.470 658.792 645.006 658.348 C 367.540 657.883 245.296 577.190 246.269 539.066 C 247.224 501.629 369.540 433.065 641.968 436.878 Z"/> <path fill="#01851f" fill-rule="evenodd" stroke="#000000" stroke-width="5" stroke-linecap="round" stroke-linejoin="round" d="M 633.776 512.958 C 831.379 514.508 919.940 562.517 919.133 593.155 C 918.358 622.575 833.206 664.304 643.448 663.971 C 442.539 663.618 351.644 618.259 352.054 587.102 C 352.450 556.983 439.571 511.435 633.776 512.958 Z"/> <path fill="#00ff21" fill-rule="evenodd" stroke="#000000" stroke-width="5" stroke-linecap="round" stroke-linejoin="round" d="M 626.634 552.164 C 763.331 550.796 825.535 583.842 824.020 607.717 C 822.535 631.113 759.786 642.677 625.844 640.872 C 503.270 639.221 446.587 627.643 445.260 606.231 C 443.894 584.193 500.465 553.426 626.634 552.164 Z"/> <path fill="#00ff21" fill-rule="evenodd" stroke="#000000" stroke-width="5" stroke-linecap="round" stroke-linejoin="round" d="M 636.240 568.608 C 764.582 569.254 823.211 589.933 823.989 611.178 C 824.779 632.725 766.799 666.283 636.630 666.136 C 504.403 665.987 445.482 631.583 446.488 609.703 C 447.472 588.285 506.807 567.957 636.240 568.608 Z"/> <path fill="#52ff57" fill-rule="evenodd" stroke="#000000" stroke-width="5" stroke-linecap="round" stroke-linejoin="round" d="M 637.476 586.857 C 708.898 587.493 742.888 598.986 742.823 606.365 C 742.757 613.744 708.568 624.630 637.145 623.994 C 565.722 623.358 531.732 611.864 531.798 604.486 C 531.864 597.107 566.053 586.221 637.476 586.857 Z"/> <path fill="#039204" fill-rule="evenodd" stroke="#000000" stroke-width="5" stroke-linecap="round" stroke-linejoin="round" d="M 529.549 604.043 C 529.551 604.044 542.507 610.130 548.305 612.102 C 558.263 615.490 571.927 619.073 582.351 620.481 C 592.587 621.864 606.438 621.395 616.766 621.434 C 629.609 621.482 646.739 621.176 659.566 620.523 C 673.589 619.809 692.380 619.130 706.216 616.739 C 718.810 614.562 747.385 605.801 747.389 605.799 C 747.389 605.800 751.589 608.240 752.844 609.845 C 754.782 612.323 757.217 616.530 756.634 619.621 C 755.505 625.608 741.654 633.329 741.652 633.330 C 741.649 633.331 719.328 640.000 709.573 642.089 C 698.631 644.433 683.847 646.690 672.714 647.817 C 659.609 649.142 642.022 650.132 628.854 649.824 C 613.642 649.468 593.253 648.162 578.362 645.035 C 567.260 642.704 552.673 638.172 542.386 633.390 C 535.517 630.198 520.833 620.243 520.831 620.242 C 520.831 620.240 518.205 611.605 519.990 608.588 C 521.607 605.855 529.548 604.043 529.549 604.043 Z"/> </g> </svg>