<?xml version="1.0" encoding="UTF-8"?>
<svg viewBox="0 0 429.65625 410.53125" xmlns="http://www.w3.org/2000/svg">
 <g transform="translate(-316.03 -141.12)">
  <path d="m531.88 200.38c-28.361 0-54.523 9.4081-75.531 25.281l7.3438 23.812c18.102-16.185 41.994-26.031 68.188-26.031 5.2132 0 10.34 0.40427 15.344 1.1562l24.969-17.594c-12.652-4.2926-26.209-6.625-40.312-6.625z"/>
  <path d="m603.78 223.03-20.344 14.312c25.805 15.079 44.39 41.153 49.406 71.781l24.406 18.312c7e-3 -0.55348 0.0312-1.1011 0.0312-1.6562 0-42.506-21.154-80.07-53.5-102.75z"/>
  <path d="m431.38 250.75c-15.647 20.923-24.906 46.894-24.906 75.031 0 14.325 2.4208 28.082 6.8438 40.906l24.875 0.375c-5.5709-12.629-8.6562-26.595-8.6562-41.281 0-16.496 3.9114-32.075 10.844-45.875l-9-29.156z"/>
  <path d="m631.91 347.47c-6.5078 30.174-26.304 55.41-52.969 69.25l-9.875 28.875c39.537-12.268 70.701-43.567 82.781-83.188l-19.938-14.938z"/>
  <path d="m429.47 398.19c22.716 32.074 60.119 53.031 102.41 53.031 0.74925 0 1.5039-0.0182 2.25-0.0312l8.0312-23.562c-3.3806 0.33734-6.8119 0.53125-10.281 0.53125-28.023 0-53.424-11.278-71.906-29.531l-30.5-0.4375z"/>
  <path d="m509.81 255.97-74.656 52.594c-0.99564 5.5945-1.5312 11.34-1.5312 17.219 0 3.9234 0.24113 7.7879 0.6875 11.594l94.906-66.844-19.406-14.562z" fill="#d40000"/>
  <path d="m667.31 145.06c-43.564 30.65-87.107 61.329-130.66 92l19.438 14.531 66.469-46.812-7.4375 21.812c6.6129 5.5585 12.645 11.772 18.031 18.531 11.369-33.36 22.759-66.712 34.156-100.06z" fill="#d40000"/>
  <path d="m604 259.12-37.469 109.84 24.25 0.34375 29.5-86.438c-4.2471-8.7233-9.7601-16.706-16.281-23.75z" fill="#d40000"/>
  <path d="m402.5 331.53c-31.13 21.917-55.531 39.095-86.469 60.875 53.455 0.81498 111.49 1.6613 159.78 2.375l-7.1562-23.188c-27.073-0.39076-54.146-0.78417-81.219-1.1875 6.2512-4.4046 12.5-8.8125 18.75-13.219-2.0539-8.2619-3.3045-16.853-3.6875-25.656z" fill="#d40000"/>
  <path d="m501.53 372.06 7.1562 23.188 91.25 1.3438c6.9429-6.6733 12.908-14.355 17.656-22.812z" fill="#d40000"/>
  <path d="m617.78 302.91-7.8438 22.969 65.062 48.75-23-0.34375c-3.2722 8.074-7.3662 15.737-12.125 22.906l66.562 1 39.25 0.5625c-42.631-31.954-85.27-63.897-127.91-95.844z" fill="#d40000"/>
  <path d="m518.44 228.47c-9.7519 1.3343-19.066 4.1168-27.688 8.0938l92.875 69.594 7.8438-22.969-73.031-54.719z" fill="#d40000"/>
  <path d="m555.91 400.06-26.25 76.938-6.8125-22.031c-8.7535-0.60457-17.28-2.0528-25.469-4.3125 10.38 33.672 20.78 67.337 31.188 101l12.656-37.156 38.938-114.09-24.25-0.34375z" fill="#d40000"/>
  <path d="m478.47 311.25-19.812 13.969 26.938 87.219c8.3924 4.4893 17.499 7.8186 27.125 9.7188l-34.25-110.91z" fill="#d40000"/>
  <path d="m401.81 141.12c15.723 50.895 31.439 101.79 47.156 152.69l19.812-13.969-23.969-77.688 18.406 13.812h0.0312c7.2715-4.5483 15.042-8.3874 23.188-11.438l-84.625-63.406z" fill="#d40000"/>
 </g>
</svg>
