<?xml version="1.0" encoding="UTF-8"?>
<svg preserveAspectRatio="none" viewBox="0 0 209.88065 243.87132" xmlns="http://www.w3.org/2000/svg">
 <path d="m103.35 3.4338c-30.187 2.3305-61.948 14.534-79.513 40.308-11.327 17.412-15.433 42.213-2.6748 60.005 7.443 10.451 18.974 16.763 30.25 22.188-15.677 10.296-36.958 16.673-44.688 35.531-3.6611 8.1934-5.6051 20.594 3.1562 26.312 13.039 7.5644 28.159 0.2121 40.844-4.125 3.4727-1.8217 4.5992-1.0748 3.0625 2.8438-2.9963 17.775-8.9019 35.455-6.8438 53.688 18.028-0.495 36.065 0.1683 54.094-0.25 0.99269-1.8693 2.011-5.9234 4.0625-6.25 1.9625 5.168 7.69 8.1138 12.969 6.4375 15.773-0.77921 31.602 0.94393 47.344-0.6875 3.6467-15.818-4.5756-30.888-7.9771-45.965 0.17694-2.7737-6.455-13.767-0.60578-9.5712 13.028 7.0226 31.463 10.334 43.145-0.90151 7.9677-8.0453 7.9284-22.613-1.0938-29.812-10.1-11.906-24.178-20.24-36.781-28.938 20.362-7.3584 37.562-27.202 35.604-49.875-0.92329-33.064-28.239-61.117-60.168-66.93-11.119-2.7976-22.665-4.3114-34.186-4.0075z" fill="#dd812c"/>
 <path transform="matrix(1.1961 0 0 1.1961 204.84 11.131)" d="m-60.493 113.07a9.8461 9.8461 0 1 1 -19.692 0 9.8461 9.8461 0 1 1 19.692 0z" fill="#512c00"/>
 <path transform="matrix(1.1961 0 0 1.1961 204.84 44.853)" d="m-60.493 113.07a9.8461 9.8461 0 1 1 -19.692 0 9.8461 9.8461 0 1 1 19.692 0z" fill="#512c00"/>
 <path transform="matrix(1.2451 0 0 1.2451 86.29 -24.66)" d="m76.967 100.88a6.5641 6.5641 0 1 1 -13.128 0 6.5641 6.5641 0 1 1 13.128 0z" fill="#f5d3a9"/>
 <path d="m123.07 6.0737c-61.706 5.0922-77.991 44.832-80.646 60.763-8.2263 49.354 37.686 55.042 70.817 59.734l-45.869-0.36404c-40.961 19.512-45.951 40.408-41.205 52.454 3.694 9.3754 15.388 18.113 34.129-10.742 0.83194-1.2809 1.8119-2.5635 2.5374-4.0681 2.0924-4.3398 6.2782-2.3755 11.455-3.424-4.9255 46.33-9.9771 74.011-4.0841 73.978h28.517l-0.53778-33.657 15.61-0.27571 0.7877 33.933h42.952c10.079 0-13.164-70.6-6.1746-74.261 17.375 8.7927 20.789 20.907 38.827 25.255l-7.0493 7.4278-25.483-8.3729-2.5483 0.72808 9.8291 32.036 1.0921 22.935h-120.13l8.0089-57.154-35.312 8.0089-14.198-8.3729s-2.9123-9.465-2.5483-11.649 5.8246-14.926 5.8246-14.926l12.377-12.741 26.211-13.834 1.8202-5.0966-12.377-7.2808-25.119-29.123s3.6404-19.658 4.0044-22.206 7.6448-24.027 7.6448-24.027l21.842-21.842 41.865-14.926 33.856-1.8202z" fill="#a85523"/>
 <path d="m122.86 225.81c3.8232-2.0045 8.4644-5.8742 12.887-3.6084 3.0133 3.6245 9.0413 7.0819 13.128 2.3232 3.8134-3.6287 10.085-4.8192 12.499 1.215" fill="none" stroke="#fff" stroke-linecap="round" stroke-width="8"/>
 <path d="m31.775 142.32c3.5859-0.29264 8.652-2.4722 12.278-1.7919 3.4667 2.3322 1.1644 11.899 2.4515 14.946 0.50814 4.1756 6.2616 4.0472 10.242 4.5827 3.7689 0.85126 6.1235 7.8178 7.2739 11.723" fill="none" stroke="#fff" stroke-linecap="round" stroke-width="8"/>
 <path d="m166.15 177.97c0.86835-4.2286 0.81056-10.271 5.3643-12.261 4.7134-0.0384 11.206-2.5163 10.109-8.6923-0.39527-5.2491 2.6534-10.858 8.8529-8.9072" fill="none" stroke="#fff" stroke-linecap="round" stroke-width="8"/>
 <path transform="matrix(1.2451 0 0 1.2451 -15.647 -24.66)" d="m76.967 100.88a6.5641 6.5641 0 1 1 -13.128 0 6.5641 6.5641 0 1 1 13.128 0z" fill="#f5d3a9"/>
 <path d="m78.533 59.184c-6.8802 0.48314-12.423 7.8508-13.188 17.219h-9.375v4.6875h9.4062c0.88287 9.5568 6.7676 16.938 13.906 16.938 7.7481 0 14-8.6727 14-19.406s-6.2519-19.438-14-19.438c-0.24213 0-0.51088-0.01679-0.75 0z" fill="#492a15"/>
 <path d="m167.17 59.184c6.8802 0.48314 12.423 7.8508 13.188 17.219h9.375v4.6875h-9.4062c-0.88287 9.5568-6.7676 16.938-13.906 16.938-7.7481 0-14-8.6727-14-19.406s6.2519-19.438 14-19.438c0.24213 0 0.51088-0.01679 0.75 0z" fill="#492a15"/>
 <path d="m104.88 89.032c0.96995 6.8379 3.995 13.86 9.8857 17.832 7.3561 4.2624 17.858 0.74922 21.365-6.944 1.8631-3.7167 2.4481-7.8846 3.2433-11.917" fill="none" stroke="#492a15" stroke-linecap="round" stroke-width="4.8"/>
 <path transform="matrix(1.1961 0 0 1.1961 206.12 9.8443)" d="m-60.493 113.07a9.8461 9.8461 0 1 1 -19.692 0 9.8461 9.8461 0 1 1 19.692 0z" fill="#f15676"/>
 <path transform="translate(192.79 -1.5778)" d="m-64.997 143.83a6.178 6.2423 0 1 1 -12.356 0 6.178 6.2423 0 1 1 12.356 0z" fill="#fff"/>
 <path transform="matrix(1.1961 0 0 1.1961 206.12 43.823)" d="m-60.493 113.07c0 5.4379-4.4083 9.8461-9.8461 9.8461s-9.8461-4.4083-9.8461-9.8461 4.4083-9.8461 9.8461-9.8461 9.8461 4.4083 9.8461 9.8461z" fill="#f15676"/>
 <path transform="translate(192.79 32.401)" d="m-64.997 143.83c0 3.4475-2.766 6.2423-6.178 6.2423s-6.178-2.7948-6.178-6.2423 2.766-6.2423 6.178-6.2423 6.178 2.7948 6.178 6.2423z" fill="#fff"/>
 <g transform="translate(193.69 31.371)" fill="#a85523" stroke="#a85523" stroke-linecap="round" stroke-width="5.3">
  <path d="m-92.927-1.0297 5.9206 9.0095"/>
  <path d="m-68.472 30.89-3.089 11.069"/>
  <path d="m-46.335 2.0593 12.099-2.0593"/>
  <path d="m-136.69 18.019 4.6335 9.267"/>
  <path d="m-105.54 108.63 8.4947-5.4057"/>
  <path d="m-54.572 98.333 9.5244 5.9206"/>
  <path d="m0.77225 136.17-9.5244 3.089"/>
  <path d="m-20.851 114.29-6.6928 8.2373"/>
  <path d="m-157.02 127.42 4.6335 12.099"/>
  <path d="m-99.877 137.72-4.1186 10.039"/>
  <path d="m-115.32 167.58 10.039 3.8612"/>
  <path d="m-62.294 162.43 6.6928 9.7818"/>
 </g>
 <path d="m101.24 225.81c-3.8232-2.0045-8.4644-5.8742-12.887-3.6084-3.0133 3.6245-9.0413 7.0819-13.128 2.3232-3.8134-3.6287-10.085-4.8192-12.499 1.215" fill="none" stroke="#fff" stroke-linecap="round" stroke-width="8"/>
 <path d="m51.596 125.59c-12.753 9.3111-25.765 13.363-32.685 19.766-15.736 14.56-15.007 26.249-15.095 32.607-0.13337 9.5872 10.882 14.177 24.072 12.766 8.3996-0.89875 17.069-6.0674 26.283-7.9916-3.3173 24.528-13.57 57.324-4.0112 57.324h50.508l4.1126-6.3562 4.1126 6.3562h53.315c10.872 0-1.2017-34.085-8.1598-57.839 29.908 17.083 45.097 3.4911 49.38-4.1346 9.3068-16.572-6.0401-30.678-41.657-54.041 15.313-5.6688 25.223-14.724 30.702-25.324 14.059-27.199-1.0594-64.569-28.933-80.996-33.171-15.817-63.046-18.285-94.452-6.981-18.437 6.7688-37.446 18.246-46.515 34.954-15.318 28.222-15.881 61.773 29.024 79.891z" fill="none" stroke="#512c00" stroke-linejoin="round" stroke-width="7.6"/>
</svg>
